<svg xmlns="http://www.w3.org/2000/svg" width="16.672" height="19.84" viewBox="0 0 16.672 19.84">
  <path id="apple" d="M14.221,12.734a4.135,4.135,0,0,1,2.215-3.756A4.759,4.759,0,0,0,12.684,7c-1.572-.124-3.291.917-3.92.917-.664,0-2.188-.873-3.384-.873-2.472.04-5.1,1.971-5.1,5.9a11.04,11.04,0,0,0,.638,3.6c.567,1.626,2.613,5.612,4.748,5.546,1.116-.027,1.9-.793,3.357-.793,1.409,0,2.139.793,3.384.793,2.153-.031,4-3.654,4.545-5.284A4.391,4.391,0,0,1,14.221,12.734ZM11.714,5.461A4.172,4.172,0,0,0,12.777,2.25,4.7,4.7,0,0,0,9.769,3.8,4.237,4.237,0,0,0,8.635,6.981a3.72,3.72,0,0,0,3.078-1.519Z" transform="translate(-0.281 -2.25)" fill="#fff"/>
</svg>
