<svg id="google" xmlns="http://www.w3.org/2000/svg" width="30.591" height="28" viewBox="0 0 30.591 28">
  <rect id="Rectangle" width="30.591" height="28" rx="4" fill="#e0e0e0" opacity="0.27"/>
  <path id="Path" d="M5.921,2.346a3.858,3.858,0,0,1,2.563.9l1.871-1.672A6.7,6.7,0,0,0,5.921,0,6.709,6.709,0,0,0,0,3.343L2.143,4.867A3.987,3.987,0,0,1,5.921,2.346Z" transform="translate(9.374 7.933)" fill="#ea4335"/>
  <path id="Path-2" data-name="Path" d="M6.363,1.24A4.773,4.773,0,0,0,6.223,0H0V2.251H3.653A2.938,2.938,0,0,1,2.3,4.22L4.389,5.7A5.69,5.69,0,0,0,6.363,1.24Z" transform="translate(15.296 12.895)" fill="#4285f4"/>
  <path id="Path-3" data-name="Path" d="M2.857,3.923a3.45,3.45,0,0,1-.221-1.2,3.623,3.623,0,0,1,.214-1.2L.707,0A5.658,5.658,0,0,0,0,2.723,5.658,5.658,0,0,0,.707,5.447Z" transform="translate(8.667 11.277)" fill="#fbbc05"/>
  <path id="Path-4" data-name="Path" d="M5.914,4.867A6.667,6.667,0,0,0,10.3,3.4L8.211,1.914a4.187,4.187,0,0,1-2.3.607A3.97,3.97,0,0,1,2.143,0L0,1.523A6.7,6.7,0,0,0,5.914,4.867Z" transform="translate(9.382 15.2)" fill="#34a853"/>
</svg>
