<svg xmlns="http://www.w3.org/2000/svg" width="24" height="24" viewBox="0 0 24 24">
  <g id="home" transform="translate(-620 -188)">
    <g id="home-2">
      <g id="Vector" transform="translate(621.99 190.002)" fill="none">
        <path d="M18.05,4.818,12.29.788A4.853,4.853,0,0,0,6.8.918L1.79,4.828A5.153,5.153,0,0,0,0,8.468v6.9A4.631,4.631,0,0,0,4.62,20H15.4a4.622,4.622,0,0,0,4.62-4.62V8.6A5.1,5.1,0,0,0,18.05,4.818ZM10.76,16a.75.75,0,0,1-1.5,0V13a.75.75,0,0,1,1.5,0Z" stroke="none"/>
        <path d="M 9.646349906921387 0 L 9.646349906921387 2 C 9.025738716125488 2 8.435423851013184 2.181350708007812 8.026449203491211 2.497564315795898 L 3.020059585571289 6.404740333557129 C 2.505270004272461 6.806289672851562 2 7.828140258789062 2 8.467740058898926 L 2 15.36774063110352 C 2 16.81793022155762 3.175331115722656 17.99773979187012 4.619999885559082 17.99773979187012 L 8.124399185180664 17.99773979187012 C 7.592451095581055 17.49596786499023 7.260000228881836 16.78498077392578 7.260000228881836 15.99773979187012 L 7.260000228881836 12.99773979187012 C 7.260000228881836 11.48138046264648 8.493639945983887 10.24773979187012 10.01000022888184 10.24773979187012 C 11.52636051177979 10.24773979187012 12.76000022888184 11.48138046264648 12.76000022888184 12.99773979187012 L 12.76000022888184 15.99773979187012 C 12.76000022888184 16.78498077392578 12.42754936218262 17.49596786499023 11.89560127258301 17.99773979187012 L 15.39999961853027 17.99773979187012 C 16.84466934204102 17.99773979187012 18.02000045776367 16.82241058349609 18.02000045776367 15.37773990631104 L 18.02000045776367 8.597740173339844 C 18.02000045776367 7.898830413818359 17.47719955444336 6.858090400695801 16.9034595489502 6.456470489501953 L 11.14237976074219 2.425710678100586 C 10.75625038146973 2.155179977416992 10.2109899520874 2.000009536743164 9.64640998840332 2 L 9.646349906921387 0 M 9.646448135375977 0 C 10.5928373336792 2.09808349609375e-05 11.53786849975586 0.2607688903808594 12.29000091552734 0.7877407073974609 L 18.04999923706055 4.817740440368652 C 19.14999961853027 5.587739944458008 20.02000045776367 7.247739791870117 20.02000045776367 8.597740173339844 L 20.02000045776367 15.37773990631104 C 20.02000045776367 17.9277400970459 17.95000076293945 19.99773979187012 15.39999961853027 19.99773979187012 L 4.619999885559082 19.99773979187012 C 2.069999694824219 19.99773979187012 0 17.91773986816406 0 15.36774063110352 L 0 8.467740058898926 C 0 7.20773983001709 0.7900009155273438 5.60774040222168 1.790000915527344 4.827739715576172 L 6.800000190734863 0.9177398681640625 C 7.586611747741699 0.3082466125488281 8.617343902587891 -2.288818359375e-05 9.646448135375977 0 Z M 10.01000022888184 16.74773979187012 C 10.42000007629395 16.74773979187012 10.76000022888184 16.40773963928223 10.76000022888184 15.99773979187012 L 10.76000022888184 12.99773979187012 C 10.76000022888184 12.58773994445801 10.42000007629395 12.24773979187012 10.01000022888184 12.24773979187012 C 9.600000381469727 12.24773979187012 9.260000228881836 12.58773994445801 9.260000228881836 12.99773979187012 L 9.260000228881836 15.99773979187012 C 9.260000228881836 16.40773963928223 9.600000381469727 16.74773979187012 10.01000022888184 16.74773979187012 Z" stroke="none" fill="#23ad8b"/>
      </g>
      <path id="Vector-2" data-name="Vector" d="M0,0H24V24H0Z" transform="translate(644 212) rotate(180)" fill="none" opacity="0"/>
    </g>
  </g>
</svg>
