<svg xmlns="http://www.w3.org/2000/svg" width="27.555" height="22.379" viewBox="0 0 27.555 22.379">
  <path id="twiter" d="M24.722,8.958c.017.245.017.49.017.734,0,7.466-5.682,16.068-16.068,16.068A15.959,15.959,0,0,1,0,23.225a11.682,11.682,0,0,0,1.364.07,11.31,11.31,0,0,0,7.011-2.413,5.657,5.657,0,0,1-5.28-3.916,7.122,7.122,0,0,0,1.067.087,5.973,5.973,0,0,0,1.486-.192,5.648,5.648,0,0,1-4.528-5.542v-.07a5.687,5.687,0,0,0,2.553.717A5.656,5.656,0,0,1,1.923,4.412a16.052,16.052,0,0,0,11.644,5.91,6.375,6.375,0,0,1-.14-1.294A5.653,5.653,0,0,1,23.2,5.164,11.118,11.118,0,0,0,26.785,3.8,5.632,5.632,0,0,1,24.3,6.912a11.321,11.321,0,0,0,3.252-.874,12.14,12.14,0,0,1-2.832,2.92Z" transform="translate(0 -3.381)" fill="#fff"/>
</svg>
